<?xml version="1.0" encoding="UTF-8"?>
<svg width="100px" height="100px" viewBox="0 0 100 100" version="1.1" xmlns="http://www.w3.org/2000/svg" xmlns:xlink="http://www.w3.org/1999/xlink">
    <title>编组 36备份 5</title>
    <g id="页面-1" stroke="none" stroke-width="1" fill="none" fill-rule="evenodd">
        <g id="桌面" transform="translate(-1646.000000, -110.000000)">
            <g id="编组-16" transform="translate(155.000000, 110.000000)">
                <g id="编组-35" transform="translate(1491.000000, 0.000000)">
                    <rect id="矩形备份-6" fill="#FFFFFF" x="0" y="0" width="100" height="100" rx="24"></rect>
                    <path d="M2.42719373,13.4703068 L25.3093975,36.3535534 L-0.000397513309,61.6628124 L-5.42101086e-20,24 C-4.62574857e-16,20.2227692 0.872592743,16.6493433 2.42719373,13.4703068 Z" id="路径" fill="#394BF1"></path>
                    <path d="M57.5251263,67.2763889 L87.2236111,96.9748737 L86.7197338,97.4788267 C83.4933416,99.0921971 79.8526852,100 76,100 L24.802,99.9993889 L57.5251263,67.2763889 Z" id="路径" fill="#FFC300"></path>
                    <path d="M76,-0.000305923808 C89.254834,-0.000305923808 100,10.745166 100,24 L100,76 C100,84.9488596 95.1022126,92.7537796 87.841008,96.8803898 L25.7288252,34.7673722 L60.4958252,-0.000305923808 L76,-0.000305923808 Z" id="路径" fill="#FF3D49"></path>
                    <path d="M66.4498244,-0.000479137745 L29.3468244,37.1035209 L88.6451917,96.4023756 C86.8377917,97.5249627 84.8702411,98.4140758 82.7846853,99.0275696 L57.2498244,73.4925209 L30.7418244,100 L24,100 C23.4338728,100 22.8723238,99.9803984 22.3159948,99.9418367 L53.0068244,69.2495209 L25.1038244,41.3465209 L-0.000175645704,66.4505209 L-0.000175645704,57.9655209 L20.8618244,37.1045209 L0.972495895,17.2150922 C1.58610116,15.1292323 2.47540697,13.1614145 3.59824882,11.3538031 L25.1048244,32.8615209 L57.9658244,-0.000479137745 L66.4498244,-0.000479137745 Z" id="路径" fill="#3C494F"></path>
                </g>
            </g>
        </g>
    </g>
</svg>